<?xml version="1.0" encoding="utf-8"?>
<!-- Generator: Adobe Illustrator 22.0.0, SVG Export Plug-In . SVG Version: 6.00 Build 0)  -->
<svg version="1.1" id="Layer_1" xmlns="http://www.w3.org/2000/svg" xmlns:xlink="http://www.w3.org/1999/xlink" x="0px" y="0px"
	 width="1114.8px" height="196.2px" viewBox="0 0 1114.8 196.2" style="enable-background:new 0 0 1114.8 196.2;"
	 xml:space="preserve">
<style type="text/css">
	.st0{fill:#FFFFFF;}
</style>
<g>
	<g>
		<path class="st0" d="M0,192.4V3.8h57.9v63.8h57.7V3.8h57.9v188.6h-57.9V118H57.9v74.4L0,192.4L0,192.4z"/>
		<path class="st0" d="M284.7,3.8c21.6,0,38.8,5.7,51.7,17.2c13.2,11.6,19.7,26.1,19.7,44.2c0,17.8-6.5,32.6-19.7,44.2
			c-12.9,11.6-30.2,17.2-51.7,17.2h-28.8v65.7H198V3.8H284.7z M276.9,84.6c11.9,0,19.9-7,19.9-17s-8.4-16.7-19.9-16.7h-21v33.7
			H276.9z"/>
		<path class="st0" d="M394.6,169c-20.5-18.3-30.7-42-30.7-70.9c0-28.8,10.2-52.5,30.4-70.6C414.5,9.2,440.4,0,471.4,0
			c18.6,0,34.5,3.2,47.7,10v54.7c-15.4-8.4-30.7-12.4-46.1-12.4c-14.3,0-26.1,4.3-35.6,13.2c-9.4,8.6-14,19.4-14,32.6
			c0,13.5,4.8,24.5,14.5,33.1c9.7,8.4,22.1,12.7,37.2,12.7c18.6,0,33.9-4.6,46.6-13.5v55.5c-12.9,6.7-29.6,10.2-49.8,10.2
			C440.9,196.2,415,187,394.6,169z"/>
		<path class="st0" d="M549.2,192.4L579.1,3.8h38.8l-11.3,70.6h85.1L703,3.8h38.5l-29.9,188.6h-38.5l13.2-82.7h-85.1L588,192.4
			L549.2,192.4L549.2,192.4z"/>
		<path class="st0" d="M899.9,3.8H939l-18.1,114c-4,25.1-14,44.5-30.4,58.2c-16.4,13.5-35.8,20.2-58.2,20.2
			c-20.7,0-38.5-6.2-52.8-18.3s-21.6-29.1-21.6-50.9c0-6.2,0.5-12.9,1.9-20.5L776,3.8h39.1l-17,105.1c-0.8,5.1-1.3,9.7-1.3,14
			c0,23.4,14.5,36.9,39.1,36.9c24.5,0,41.8-14.3,46.3-44.2L899.9,3.8z"/>
		<path class="st0" d="M1114.8,131.8c0,18.6-6.7,33.1-20.5,44.2c-13.5,11-30.7,16.4-51.5,16.4h-98.6L973.8,3.8h84.6
			c31.5,0,52.5,15.9,52.5,42c0,19.1-10.2,35.3-28.3,43.1C1100.8,93,1114.8,108.9,1114.8,131.8z M1040.8,159
			c18.3,0,32.3-10.2,32.3-27.8c0-13.2-10-21.6-26.1-21.6h-50.6l-7.8,49.3L1040.8,159L1040.8,159z M1045.3,77.6
			c15.4,0,27.5-8.3,27.5-23.4c0-11-8.1-18.1-22.1-18.1h-42.8l-6.5,41.5H1045.3z"/>
	</g>
</g>
</svg>
